<svg width="209" height="45" viewBox="0 0 209 45" fill="none" xmlns="http://www.w3.org/2000/svg">
<path fill-rule="evenodd" clip-rule="evenodd" d="M11 0H0V17.25V17.3H0.0499992L26.8696 44.1196L27 43.9891L27 43.9986L44.9781 44.0035L44.9808 34.0674L33.3141 34.0642L11 11.7501V0ZM152.981 0H163.981V17H188V27H154.231L147.231 34H209V44H137.231L137.111 44.1196L136.981 43.9888V43.9986L126.228 44.0015L126.225 34.0654L130.667 34.0642L152.981 11.7501V0ZM209 0H166V10H209V0ZM72.2309 30H98.75L86.05 17.3H86V17.25V0H97V11.7501L119.314 34.0642L123.99 34.0655L123.987 44.0016L113 43.9986V43.9888L112.87 44.1196L103.75 35H67.2309L58.1113 44.1196L57.9808 43.9891L57.9808 43.9986L46.129 44.0018L46.1263 34.0657L51.6668 34.0642L73.9809 11.7501V0H84.9809V17.25V17.3H84.9309L72.2309 30ZM34 34V4H45V34H34Z" fill="white"/>
</svg>
